<svg width="237" height="84" viewBox="0 0 237 84" fill="none" xmlns="http://www.w3.org/2000/svg">
<path d="M225.479 55.9105L225.484 55.9219C227.344 60.8909 229.533 65.6059 231.667 70.0919C231.955 70.6976 232.243 71.2998 232.528 71.8982C233.271 73.4533 234.001 74.9831 234.7 76.4837L235.143 49.975C234.054 46.0952 232.334 42.7155 230.501 39.1148C229.96 38.0534 229.41 36.9727 228.863 35.8545C226.659 31.626 223.696 28.5905 220.157 26.8577C216.621 25.1261 212.387 24.6353 207.53 25.7048L207.523 25.7064L207.515 25.7079C201.723 26.9236 195.788 29.3093 191.627 32.8729L191.608 32.8894L191.588 32.9053C186.67 36.8356 182.463 41.5095 178.146 46.3053C176.447 48.1931 174.731 50.0997 172.948 51.9874M225.479 55.9105L171.852 50.9616M225.479 55.9105L225.475 55.8992L225.47 55.8857C224.3 52.9095 223.133 49.9394 222.073 47.19L222.06 47.1569L222.046 47.1244C219.38 41.0768 216.106 37.0837 211.731 36.1228C207.368 35.1643 202.624 37.3828 197.441 41.8353L225.479 55.9105ZM172.948 51.9874C172.947 51.9884 172.946 51.9895 172.945 51.9906L171.852 50.9616M172.948 51.9874C172.949 51.9866 172.949 51.9858 172.95 51.985L171.852 50.9616M172.948 51.9874C169.18 56.016 165.891 58.5656 162.151 59.1028C158.387 59.6435 154.582 58.0911 149.944 55.0912L149.938 55.0869L149.931 55.0825C138.83 47.7348 129.345 38.4387 122.696 26.6154L122.689 26.6028L122.682 26.59C119.552 20.7654 116.13 14.9189 112.045 9.97188L112.042 9.9688C107.708 4.69208 102.438 2.10015 97.1528 1.98841C91.8601 1.87649 86.3278 4.24805 81.4794 9.33646L81.4667 9.34978L81.4537 9.36279C77.3144 13.4985 74.1072 18.6622 70.8175 23.9586C70.4278 24.586 70.0369 25.2153 69.6432 25.845M171.852 50.9616C164.37 58.9617 159.919 59.7585 150.76 53.834C139.818 46.5916 130.516 37.461 124.005 25.8833C120.864 20.0386 117.386 14.085 113.203 9.01972C104.067 -2.10222 90.5552 -2.36486 80.3907 8.3029C76.1207 12.5692 72.8186 17.8879 69.5438 23.1626C69.1499 23.7971 68.7564 24.4309 68.3617 25.0622M69.6432 25.845C69.6457 25.8409 69.6481 25.8368 69.6505 25.8327L68.3617 25.0622M69.6432 25.845C69.6407 25.849 69.6382 25.853 69.6357 25.857L68.3617 25.0622M69.6432 25.845C67.713 29.0675 65.9699 32.4066 64.2213 35.8106C64.0067 36.2285 63.7919 36.6474 63.5767 37.0672C62.0426 40.0597 60.4859 43.0962 58.798 46.0903L58.7907 46.1034L58.7831 46.1163C56.4269 50.1069 53.442 53.3373 49.7515 55.3154C46.0368 57.3064 41.7138 57.9703 36.8206 56.9904L36.8144 56.9892C27.269 55.0362 17.978 52.417 8.74814 49.8151L8.74436 49.814M68.3617 25.0622C66.1599 28.7367 64.2052 32.5495 62.2392 36.3844C60.7038 39.3792 59.1615 42.3876 57.4892 45.354C52.9707 53.0072 46.2672 57.3542 37.1138 55.5211C27.6225 53.5792 18.3759 50.9726 9.12925 48.3659M8.74436 49.814C8.75153 49.8158 8.75868 49.8176 8.76582 49.8194L9.12925 48.3659M8.74436 49.814L8.72315 49.808L9.12925 48.3659M8.74436 49.814C7.4489 49.4901 5.64045 49.093 4.14578 49.0914C3.3852 49.0906 2.86883 49.1951 2.57328 49.3397C2.36252 49.4428 2.31515 49.5243 2.29148 49.6941C1.97279 51.9814 2.12604 53.5098 2.49941 54.5571C2.85736 55.5612 3.45262 56.2239 4.25773 56.7374C5.10793 57.2797 6.19631 57.6584 7.54061 58.0251C7.95375 58.1379 8.40313 58.2521 8.87231 58.3713C9.83815 58.6168 10.8879 58.8837 11.8781 59.2026C20.6089 62.0149 29.6785 64.3822 38.6437 65.9807M9.12925 48.3659C6.53355 47.7157 1.20903 46.5813 0.804363 49.4855C-0.323913 57.583 3.82719 58.6368 8.57233 59.8414C9.51003 60.0794 10.4709 60.3234 11.4189 60.6287C20.2052 63.4589 29.3441 65.8449 38.3897 67.4573M38.3897 67.4573L38.6375 65.9797C38.6396 65.98 38.6416 65.9804 38.6437 65.9807M38.3897 67.4573C50.4913 69.4965 60.0643 64.029 67.129 54.5935M38.3897 67.4573L38.6515 65.9821C38.6489 65.9816 38.6463 65.9812 38.6437 65.9807M38.6437 65.9807C50.0401 67.8986 59.0964 62.8133 65.921 53.7018M67.129 54.5935L65.9168 53.7075C65.9182 53.7056 65.9196 53.7037 65.921 53.7018M67.129 54.5935C69.1152 51.884 70.7225 48.9895 72.325 46.1038C73.4797 44.0245 74.6318 41.9498 75.9214 39.9519M67.129 54.5935L65.9259 53.6953C65.9243 53.6975 65.9227 53.6996 65.921 53.7018M65.921 53.7018C67.5696 51.452 68.959 49.0552 70.3403 46.5823C70.5616 46.1861 70.783 45.7873 71.0054 45.3868C72.1569 43.3129 73.334 41.193 74.649 39.1543M75.9214 39.9519L74.6395 39.1697C74.6427 39.1646 74.6458 39.1594 74.649 39.1543M75.9214 39.9519C76.7446 38.6058 77.5553 37.2556 78.3646 35.9077C81.7571 30.2578 85.1261 24.6469 89.2964 19.5366M75.9214 39.9519L74.6589 39.139C74.6556 39.1441 74.6523 39.1492 74.649 39.1543M74.649 39.1543C75.4546 37.8367 76.2525 36.5076 77.0527 35.1747C80.4455 29.5231 83.8794 23.803 88.1186 18.6052M89.2964 19.5366L88.1057 18.6219C88.11 18.6163 88.1143 18.6107 88.1186 18.6052M89.2964 19.5366C94.0014 13.4306 98.3159 13.5191 103.161 19.3551L111.987 30.5152L111.883 30.3274L111.849 30.2667C109.628 26.2893 107.222 21.9792 104.327 18.4127L104.321 18.4063L104.316 18.4C101.812 15.3829 99.1335 13.4538 96.1662 13.469C93.1898 13.4842 90.5545 15.4491 88.1186 18.6052M89.2964 19.5366L88.1317 18.5891C88.1273 18.5945 88.123 18.5998 88.1186 18.6052" fill="#123AC8" stroke="#FE4236" stroke-width="3"/>
</svg>
