<svg width="107" height="34" viewBox="0 0 107 34" fill="none" xmlns="http://www.w3.org/2000/svg">
<g id="Group 177">
<path id="HoD." d="M1 1.5H0.5V2V31.97V32.47H1H7.57H8.07V31.97V19.69H19.805V31.97V32.47H20.305H26.92H27.42V31.97V2V1.5H26.92H20.305H19.805V2V13.11H8.07V2V1.5H7.57H1Z" fill="#F7F3EE" stroke="#F7F3EE"/>
<path id="HoD. (Stroke)" fill-rule="evenodd" clip-rule="evenodd" d="M32.8216 25.0003C31.5058 22.4971 30.8618 19.6482 30.8618 16.48C30.8618 13.2835 31.5051 10.4193 32.8216 7.91472C34.1383 5.40995 36.0112 3.4539 38.4294 2.06747C40.8517 0.678722 43.638 0 46.7568 0C49.8458 0 52.6152 0.678791 55.035 2.06503C57.4526 3.42 59.3267 5.34505 60.6445 7.82001C61.9629 10.296 62.6068 13.1321 62.6068 16.3C62.6068 19.525 61.9641 22.4175 60.6494 24.9506L60.647 24.9553C59.3314 27.4581 57.4611 29.4268 55.0478 30.8425L55.0392 30.8476C52.6185 32.2355 49.8476 32.915 46.7568 32.915C43.666 32.915 40.8952 32.2354 38.4744 30.8475C36.0584 29.4623 34.1725 27.5091 32.8263 25.0091L32.8216 25.0003ZM51.8889 22.8985C53.1985 21.3531 53.9018 19.2482 53.9018 16.48C53.9018 14.6804 53.5788 13.1349 52.9616 11.8199L52.9564 11.8089L52.9515 11.7977C52.3639 10.4624 51.5305 9.48766 50.4605 8.82526L50.4485 8.81788L50.4368 8.81017C49.3832 8.11631 48.1676 7.76 46.7568 7.76C45.3462 7.76 44.1112 8.11636 43.0226 8.81618L43.0174 8.81952C41.9724 9.48219 41.1326 10.4619 40.5123 11.8086C39.9213 13.1267 39.6118 14.6764 39.6118 16.48C39.6118 18.282 39.9207 19.8305 40.5107 21.1478C41.1303 22.4647 41.9734 23.4528 43.0318 24.1498C44.0823 24.8416 45.312 25.2 46.7568 25.2C48.9429 25.2 50.617 24.4299 51.8825 22.9061L51.8889 22.8985ZM65.5213 32.3018V0.382988L66.4981 0.360271C67.8 0.329992 69.7144 0.314999 72.2363 0.314999C74.7835 0.314999 76.696 0.329935 77.9684 0.360125C81.0334 0.392296 83.7448 1.01888 86.0703 2.27678C88.4276 3.50556 90.2501 5.27758 91.5154 7.5792C92.8109 9.88106 93.4413 12.5439 93.4413 15.535C93.4413 18.8053 92.7169 21.7272 91.2379 24.2691C89.7912 26.807 87.7311 28.7825 85.0818 30.1874C82.4596 31.5939 79.4344 32.2974 76.0352 32.3299C74.9705 32.3601 73.3871 32.375 71.2913 32.375C69.1593 32.375 67.5576 32.36 66.4927 32.3296L65.5213 32.3018ZM76.0163 31.33C79.2863 31.3 82.1513 30.625 84.6113 29.305C87.1013 27.985 89.0213 26.14 90.3713 23.77C91.7513 21.4 92.4413 18.655 92.4413 15.535C92.4413 12.685 91.8413 10.195 90.6413 8.065C89.4713 5.935 87.7913 4.3 85.6013 3.16C83.4413 1.99 80.8913 1.39 77.9513 1.36C76.6913 1.33 74.7863 1.315 72.2363 1.315C69.7163 1.315 67.8113 1.33 66.5213 1.36V31.3299C67.5713 31.3599 69.1613 31.375 71.2913 31.375C73.3913 31.375 74.9663 31.36 76.0163 31.33ZM82.7792 9.98711L82.7721 9.97997C81.5458 8.72865 79.7092 8.03 77.0963 8.03H74.0463V24.66H75.9713C78.7963 24.66 80.9013 23.8419 82.4132 22.304C83.9267 20.7643 84.7363 18.6105 84.7363 15.715C84.7363 13.1034 84.0381 11.246 82.7792 9.98711ZM73.0463 25.66V7.03H77.0963C79.8863 7.03 82.0163 7.78 83.4863 9.28C84.9863 10.78 85.7363 12.925 85.7363 15.715C85.7363 18.805 84.8663 21.235 83.1263 23.005C81.3863 24.775 79.0013 25.66 75.9713 25.66H73.0463ZM100.42 33.86C98.8818 33.86 97.5359 33.2805 96.4276 32.1721C95.3422 31.0867 94.7847 29.7532 94.7847 28.225C94.7847 26.6738 95.3372 25.3233 96.4276 24.2329C97.5359 23.1245 98.8818 22.545 100.42 22.545C101.979 22.545 103.331 23.1187 104.418 24.2388C105.504 25.3281 106.055 26.6766 106.055 28.225C106.055 29.7505 105.499 31.0819 104.418 32.1662C103.331 33.2864 101.979 33.86 100.42 33.86ZM103.705 31.465C104.605 30.565 105.055 29.485 105.055 28.225C105.055 26.935 104.605 25.84 103.705 24.94C102.805 24.01 101.71 23.545 100.42 23.545C99.1597 23.545 98.0647 24.01 97.1347 24.94C96.2347 25.84 95.7847 26.935 95.7847 28.225C95.7847 29.485 96.2347 30.565 97.1347 31.465C98.0647 32.395 99.1597 32.86 100.42 32.86C101.71 32.86 102.805 32.395 103.705 31.465ZM38.9718 29.98C41.2218 31.27 43.8168 31.915 46.7568 31.915C49.6968 31.915 52.2918 31.27 54.5418 29.98C56.7918 28.66 58.5318 26.83 59.7618 24.49C60.9918 22.12 61.6068 19.39 61.6068 16.3C61.6068 13.27 60.9918 10.6 59.7618 8.29C58.5318 5.98 56.7918 4.195 54.5418 2.935C52.2918 1.645 49.6968 1 46.7568 1C43.7868 1 41.1768 1.645 38.9268 2.935C36.6768 4.225 34.9368 6.04 33.7068 8.38C32.4768 10.72 31.8618 13.42 31.8618 16.48C31.8618 19.51 32.4768 22.195 33.7068 24.535C34.9668 26.875 36.7218 28.69 38.9718 29.98ZM52.6518 23.545C51.1818 25.315 49.2168 26.2 46.7568 26.2C45.1368 26.2 43.7118 25.795 42.4818 24.985C41.2518 24.175 40.2918 23.035 39.6018 21.565C38.9418 20.095 38.6118 18.4 38.6118 16.48C38.6118 14.56 38.9418 12.865 39.6018 11.395C40.2918 9.895 41.2518 8.755 42.4818 7.975C43.7418 7.165 45.1668 6.76 46.7568 6.76C48.3468 6.76 49.7568 7.165 50.9868 7.975C52.2468 8.755 53.2068 9.895 53.8668 11.395C54.5568 12.865 54.9018 14.56 54.9018 16.48C54.9018 19.42 54.1518 21.775 52.6518 23.545Z" fill="#F7F3EE"/>
</g>
</svg>
